<svg id="visual" viewBox="0 0 900 600" width="900" height="600" xmlns="http://www.w3.org/2000/svg" xmlns:xlink="http://www.w3.org/1999/xlink" version="1.1"><rect x="0" y="0" width="900" height="600" fill="#ebecf0"></rect><g transform="translate(456.71803861110766 299.57050898484897)"><path d="M176.2 -285.2C227.5 -275.7 267.5 -226.6 279 -172.5C290.6 -118.3 273.8 -59.2 273.7 -0.1C273.5 59 290 118 273.4 163.3C256.7 208.6 206.9 240.3 155.8 259.5C104.7 278.6 52.3 285.3 -1.2 287.3C-54.7 289.4 -109.3 286.7 -143.8 258C-178.3 229.2 -192.7 174.4 -217.2 127C-241.7 79.7 -276.3 39.8 -289.9 -7.8C-303.5 -55.5 -295.9 -111 -269.3 -154.6C-242.6 -198.2 -196.8 -229.9 -148.7 -241.2C-100.7 -252.5 -50.3 -243.4 6.1 -254C62.5 -264.5 125 -294.6 176.2 -285.2" fill="#440786"></path></g></svg>