<?xml version="1.0" standalone="no"?><svg xmlns="http://www.w3.org/2000/svg" viewBox="0 0 1440 320"><path fill="#011e33" fill-opacity="1" d="M0,256L16,245.3C32,235,64,213,96,213.3C128,213,160,235,192,250.7C224,267,256,277,288,234.7C320,192,352,96,384,96C416,96,448,192,480,197.3C512,203,544,117,576,85.3C608,53,640,75,672,80C704,85,736,75,768,96C800,117,832,171,864,176C896,181,928,139,960,106.7C992,75,1024,53,1056,74.7C1088,96,1120,160,1152,176C1184,192,1216,160,1248,144C1280,128,1312,128,1344,149.3C1376,171,1408,213,1424,234.7L1440,256L1440,0L1424,0C1408,0,1376,0,1344,0C1312,0,1280,0,1248,0C1216,0,1184,0,1152,0C1120,0,1088,0,1056,0C1024,0,992,0,960,0C928,0,896,0,864,0C832,0,800,0,768,0C736,0,704,0,672,0C640,0,608,0,576,0C544,0,512,0,480,0C448,0,416,0,384,0C352,0,320,0,288,0C256,0,224,0,192,0C160,0,128,0,96,0C64,0,32,0,16,0L0,0Z"></path></svg>